Coordinates
version=1
nRows=8
nColumns=34
inDegrees=yes

Units are S.I. units (second, meters, Newtons, ...)
If the header above contains a line with 'inDegrees', this indicates whether rotational values are in degrees (yes) or radians (no).

endheader
time	pelvis_tilt	pelvis_list	pelvis_rotation	pelvis_tx	pelvis_ty	pelvis_tz	hip_flexion_r	hip_adduction_r	hip_rotation_r	knee_angle_r	ankle_angle_r	subtalar_angle_r	mtp_angle_r	hip_flexion_l	hip_adduction_l	hip_rotation_l	knee_angle_l	ankle_angle_l	subtalar_angle_l	mtp_angle_l	lumbar_extension	lumbar_bending	lumbar_rotation	arm_flex_r	arm_add_r	arm_rot_r	elbow_flex_r	pro_sup_r	arm_flex_l	arm_add_l	arm_rot_l	elbow_flex_l	pro_sup_l
      2.96666670	     -3.67108511	      1.95787077	     -1.20938670	      0.12378275	      0.83228705	     -0.05503326	      5.17298823	     -5.73877401	    -16.53505886	      5.46281507	     -3.77776668	    -12.49218271	      0.00000000	      6.74405971	     -5.97292372	    -14.10022259	      7.37164819	      2.99496526	      1.84797068	      0.00000000	     -2.67196030	      0.14730261	     -2.04710394	     73.32756605	      1.72313254	     68.42929618	    111.06482207	     89.09648148	     83.37295922	      1.10171417	     76.16380369	    112.96680096	     74.84879996
      2.98333330	     -4.01911079	      1.88292836	     -0.95322496	      0.12110358	      0.83186730	     -0.05547654	      6.10877078	     -5.75927122	    -15.99735382	      6.36599203	     -4.28501746	    -14.21089641	      0.00000000	      8.31029663	     -6.18375502	    -12.56938722	      9.17016727	      2.88653027	     -0.50433211	      0.00000000	     -2.87626852	      0.17771160	     -2.87126800	     72.77880685	      2.16439471	     67.62141354	    109.23933401	     89.33650152	     83.54387309	      0.21242445	     76.93433442	    112.73672040	     74.70886601
      3.00000000	     -3.84452600	      1.77774254	     -1.10252031	      0.11484211	      0.83379021	     -0.05519568	      6.79238260	     -5.78022922	    -15.49740602	      7.49281858	     -3.84172574	    -14.77342811	      0.00000000	      9.36630416	     -6.55452848	    -12.14777683	     11.21528770	      3.39689358	     -1.50667748	      0.00000000	     -4.13035329	      0.17440296	     -2.97191937	     72.99490597	      2.33566241	     67.65862936	    108.46423200	     89.41285473	     83.75671546	     -0.27620332	     76.92613626	    112.11989647	     74.63466289
      3.01666670	     -4.14816542	      1.72800336	     -1.06538693	      0.11257090	      0.83312346	     -0.05598744	      8.01814516	     -5.88967686	    -14.75757615	      8.74226726	     -4.10893085	    -16.30468726	      0.00000000	     11.22733062	     -6.71745270	    -10.41955745	     13.61207002	      2.92573358	     -4.29240225	      0.00000000	     -4.43419235	      0.23820698	     -3.58753530	     73.06915372	      3.03671831	     68.84037110	    107.34509824	     89.78075387	     83.36874520	     -0.96556591	     77.41696675	    111.80791131	     74.42851756
      3.03333330	     -4.11629670	      1.64387626	     -1.10829555	      0.10895127	      0.82925844	     -0.05702968	      9.13025253	     -6.00367040	    -14.07623917	     10.33152215	     -3.92410361	    -17.46956391	      0.00000000	     12.83184828	     -6.94324361	     -9.36123738	     16.25329331	      3.17957588	     -6.33167239	      0.00000000	     -5.37345665	      0.38230506	     -3.51755267	     73.29182775	      2.75301082	     68.68014389	    106.96761959	     90.04573098	     83.56065325	     -1.01333389	     77.35423946	    112.82231246	     74.33849615
      3.05000000	     -4.03808532	      1.53271727	     -1.01959643	      0.10425206	      0.82407772	     -0.05716415	     10.52996823	     -6.16287698	    -13.31606052	     12.37907456	     -3.52926277	    -18.96211053	      0.00000000	     14.63433389	     -7.13872469	     -8.06077565	     19.16258769	      3.74374537	     -8.37129263	      0.00000000	     -6.36794976	      0.53752475	     -3.40250066	     74.10696911	      2.74573472	     67.80054853	    104.49035829	     90.15400199	     84.25879767	     -0.76422314	     77.23756044	    112.87743169	     74.24893184
      3.06666670	     -4.02704627	      1.39508197	     -0.98669177	      0.10060268	      0.81888260	     -0.05784776	     12.34724518	     -6.33946039	    -12.82948382	     14.91630440	     -3.45314190	    -20.98330423	      0.00000000	     16.74392541	     -7.35496448	     -6.76258832	     22.46561403	      4.17900240	    -10.36582598	      0.00000000	     -7.60452338	      0.73354637	     -3.32803782	     75.29466856	      2.89312855	     66.82735559	    102.96883730	     90.19780248	     85.36234533	     -0.69872080	     77.16973752	    113.34226445	     74.22753777
      3.08333330	     -3.77398425	      1.21309131	     -1.03443731	      0.09760044	      0.81574031	     -0.05918567	     14.00251104	     -6.51663634	    -12.06784296	     17.76367478	     -3.15742356	    -22.71872343	      0.00000000	     18.49675839	     -7.63948000	     -5.77415344	     25.61501252	      4.92522230	    -11.99748610	      0.00000000	     -8.97074270	      0.97119734	     -3.12511690	     76.44561144	      3.00358572	     66.41029564	    100.45096825	     90.18980173	     86.19658872	     -0.34911189	     76.92221566	    113.09502675	     74.18952740
